<?xml version="1.0" encoding="UTF-8"?>
<svg width="49px" height="48px" viewBox="0 0 49 48" version="1.1" xmlns="http://www.w3.org/2000/svg" xmlns:xlink="http://www.w3.org/1999/xlink">
    <!-- Generator: Sketch 63.1 (92452) - https://sketch.com -->
    <title>Training &amp; Health</title>
    <desc>Created with Sketch.</desc>
    <g id="Wireframes" stroke="none" stroke-width="1" fill="none" fill-rule="evenodd">
        <g id="Personen,-die-Hilfe-suchen-Copy-2" transform="translate(-912.000000, -811.000000)" fill-rule="nonzero">
            <g id="Rectangle" transform="translate(892.000000, 795.000000)">
                <g id="Group-12">
                    <g id="Training-&amp;-Health" transform="translate(20.000000, 16.000000)">
                        <path d="M17.6703365,2.74640399 L46.2445246,2.74640399 C47.6433027,2.74640399 48.7772363,3.88033767 48.7772363,5.27911574 L48.7772363,43.3777422 C48.7772363,44.7765203 47.6433027,45.910454 46.2445246,45.910454 L17.6703365,45.910454 C16.2715584,45.910454 15.1376247,44.7765203 15.1376247,43.3777422 L15.1376247,5.27911574 C15.1376247,3.88033767 16.2715584,2.74640399 17.6703365,2.74640399 Z" id="Rectangle-path" fill="#42A5F5"></path>
                        <polygon id="Shape" fill="#FFFFFF" points="17.3190467 4.68245914 17.3190467 43.5632366 41.4710768 43.5632366 46.5998244 38.4576397 46.5998244 4.68245914"></polygon>
                        <polygon id="Shape" fill="#CCD8E0" points="41.4710768 38.4576397 41.4710768 43.5632366 46.5998244 38.4576397"></polygon>
                        <path d="M28.3107834,2.19153458 L35.6040777,2.19153458 C36.1247496,2.19153458 36.5468376,2.61362257 36.5468376,3.13429449 L36.5468376,4.95322658 C36.5468376,5.47389849 36.1247496,5.89598648 35.6040777,5.89598648 L28.3107834,5.89598648 C27.7901115,5.89598648 27.3680235,5.47389849 27.3680235,4.95322658 L27.3680235,3.13429449 C27.3680235,2.61362257 27.7901115,2.19153458 28.3107834,2.19153458 Z" id="Rectangle-path" fill="#1F1F1F"></path>
                        <path d="M33.8160545,2.19153458 C33.8176719,2.94141412 33.3649407,3.6182791 32.66931,3.90599182 C31.9736794,4.19370454 31.1724201,4.03548982 30.6397696,3.50524369 C30.1071191,2.97499755 29.948187,2.17735503 30.2372043,1.48486436 C30.5262216,0.792373701 31.2061558,0.341686114 31.9594355,0.343296176 C32.9848155,0.343296176 33.8160545,1.17078308 33.8160545,2.19153458 L33.8160545,2.19153458 Z" id="Shape" fill="#1F1F1F"></path>
                        <path d="M22.4557418,20.358518 C22.4557418,17.2648216 24.7896149,14.7699052 27.668771,14.7699052 C29.4279744,14.7918826 31.0526681,15.711351 31.9714654,17.2049436 C32.8861428,15.7149879 34.5042378,14.7958275 36.2581199,14.7699052 C39.1372761,14.7699052 41.4711305,17.2767972 41.4711305,20.358518 C41.4743375,21.1930128 41.3290709,22.0214845 41.0420104,22.805532 L35.6365751,22.805532 L34.3934854,18.9972916 C34.3555668,18.8507423 34.2206138,18.7499778 34.068671,18.7547644 C33.9167282,18.759551 33.7884454,18.8686081 33.7599106,19.0172509 L31.9433957,25.8992284 L30.0747511,20.4104122 C30.0348432,20.2851485 29.9251101,20.1946372 29.7940534,20.178884 C29.6640018,20.1653933 29.5392443,20.2338594 29.481276,20.3505342 L27.8772893,23.1967349 L28.6472029,23.1967349 L29.6857843,21.3524927 L31.6787378,27.1766256 C31.7208606,27.313628 31.8475914,27.4074383 31.9915153,27.4081538 L31.9915153,27.4081538 C32.1397466,27.4000339 32.2651604,27.2962643 32.3002827,27.1526744 L34.1087777,20.2866644 L35.0872096,23.2725804 C35.1286606,23.4112194 35.2547465,23.5077707 35.399987,23.5120923 L40.7613127,23.5120923 C39.7868907,25.8233829 37.46111,28.9929247 31.9393857,31.5596947 L31.9393857,31.5596947 C26.3735517,28.9649817 24.0598009,25.7555212 23.1174587,23.4362469 L22.8568108,22.7256947 C22.5877922,21.9653605 22.4521492,21.1646284 22.4557418,20.358518 L22.4557418,20.358518 Z" id="Shape" fill="#EF5350"></path>
                        <path d="M12.08604,23.4003201 C10.427272,23.4003201 9.08257484,22.0616927 9.08257484,20.4104122 C9.08257484,18.7591317 10.427272,17.4205044 12.08604,17.4205044 C13.744808,17.4205044 15.0895051,18.7591317 15.0895051,20.4104122 C15.0872961,22.060781 13.7438921,23.3981211 12.08604,23.4003201 Z M12.08604,18.6100806 C11.3509637,18.6100823 10.6883442,19.0510974 10.4074188,19.7273088 C10.1264933,20.4035202 10.282643,21.1816211 10.8029944,21.6984802 C11.3233459,22.2153393 12.1053181,22.3690642 12.7839732,22.0879132 C13.4626283,21.8067621 13.9041776,21.1461605 13.9025594,20.4144041 C13.9025594,19.934809 13.7111727,19.4748569 13.37051,19.135732 C13.0298474,18.7966071 12.5678097,18.6060887 12.08604,18.6060887 L12.08604,18.6100806 Z" id="Shape" fill="#1147A1"></path>
                        <path d="M11.9211301,19.9513476 L12.1787705,19.9513476 C12.6347102,19.9513476 13.0043224,20.3209598 13.0043224,20.7768995 L13.0043224,23.924019 C13.0043224,24.3799587 12.6347102,24.7495709 12.1787705,24.7495709 L11.9211301,24.7495709 C11.4651904,24.7495709 11.0955782,24.3799587 11.0955782,23.924019 L11.0955782,20.7768995 C11.0955782,20.3209598 11.4651904,19.9513476 11.9211301,19.9513476 Z" id="Rectangle-path" fill="#1F1F1F"></path>
                        <path d="M18.8815692,24.0816759 L19.1392096,24.0816759 C19.5951493,24.0816759 19.9647615,24.4512881 19.9647615,24.9072278 L19.9647615,28.0543472 C19.9647615,28.510287 19.5951493,28.8798992 19.1392096,28.8798992 L18.8815692,28.8798992 C18.4256295,28.8798992 18.0560173,28.510287 18.0560173,28.0543472 L18.0560173,24.9072278 C18.0560173,24.4512881 18.4256295,24.0816759 18.8815692,24.0816759 Z" id="Rectangle-path" fill="#1F1F1F" transform="translate(19.010389, 26.480788) rotate(33.450000) translate(-19.010389, -26.480788) "></path>
                        <path d="M4.96682254,24.0751361 L5.22446291,24.0751361 C5.68040264,24.0751361 6.05001483,24.4447483 6.05001483,24.900688 L6.05001483,28.0478074 C6.05001483,28.5037472 5.68040264,28.8733594 5.22446291,28.8733594 L4.96682254,28.8733594 C4.5108828,28.8733594 4.14127062,28.5037472 4.14127062,28.0478074 L4.14127062,24.900688 C4.14127062,24.4447483 4.5108828,24.0751361 4.96682254,24.0751361 Z" id="Rectangle-path" fill="#1F1F1F" transform="translate(5.095643, 26.474248) rotate(146.550000) translate(-5.095643, -26.474248) "></path>
                        <ellipse id="Oval" fill="#1F1F1F" cx="12.08604" cy="35.8948615" rx="11.9176214" ry="11.8638266"></ellipse>
                        <path d="M12.08604,24.031035 C18.6679605,24.031035 24.0036614,29.342651 24.0036614,35.8948615 C24.0036614,42.447072 18.6679605,47.7586881 12.08604,47.7586881" id="Shape" fill="#5F6368"></path>
                        <ellipse id="Oval" fill="#FFFFFF" cx="12.08604" cy="35.8948615" rx="9.42342202" ry="9.38088574"></ellipse>
                        <path d="M13.4494346,35.8948615 C13.4510517,36.444172 13.1199036,36.9402928 12.6105708,37.1516252 C12.101238,37.3629577 11.5141637,37.2478259 11.1234053,36.8599755 C10.732647,36.4721251 10.6152644,35.8880425 10.826054,35.3803884 C11.0368435,34.8727344 11.5342363,34.5416188 12.08604,34.5416188 C12.8374556,34.5416188 13.4472187,35.146841 13.4494346,35.8948615 Z" id="Shape" fill="#1F1F1F"></path>
                        <path d="M12.08604,36.3499343 C11.8335706,36.3499343 11.6289038,36.1461913 11.6289038,35.8948615 L11.6289038,30.4419722 C11.6126658,30.2699495 11.6956886,30.1036106 11.8432163,30.0125901 C11.9907439,29.9215696 12.1773261,29.9215696 12.3248537,30.0125901 C12.4723814,30.1036106 12.5554042,30.2699495 12.5391662,30.4419722 L12.5391662,35.8948615 C12.5391759,36.1446405 12.336942,36.3477432 12.08604,36.3499343 L12.08604,36.3499343 Z" id="Shape" fill="#1F1F1F"></path>
                        <path d="M15.8754586,38.6093306 C15.7543015,38.6079806 15.6350264,38.5793201 15.5265915,38.5255014 L11.7371729,36.5694869 C11.3990603,36.3615506 11.2783022,35.9298214 11.4598052,35.5778536 C11.6413083,35.2258859 12.0640943,35.0719272 12.4308971,35.224228 L16.2203158,37.1802424 C16.5294537,37.3428025 16.6877792,37.6939501 16.6043241,38.0319281 C16.520869,38.3699062 16.2170532,38.6079676 15.8674387,38.6093306 L15.8754586,38.6093306 Z" id="Shape" fill="#1F1F1F"></path>
                    </g>
                </g>
            </g>
        </g>
    </g>
</svg>