<?xml version="1.0" encoding="UTF-8"?>
<svg width="47px" height="48px" viewBox="0 0 47 48" version="1.1" xmlns="http://www.w3.org/2000/svg" xmlns:xlink="http://www.w3.org/1999/xlink">
    <!-- Generator: Sketch 64 (93537) - https://sketch.com -->
    <title>Children &amp; Parents</title>
    <desc>Created with Sketch.</desc>
    <g id="🖥-Website" stroke="none" stroke-width="1" fill="none" fill-rule="evenodd">
        <g id="New-Frontpage" transform="translate(-912.000000, -768.000000)">
            <g id="Group-13" transform="translate(892.000000, 752.000000)">
                <g id="Group-11" transform="translate(20.000000, 16.000000)">
                    <g id="Children-&amp;-Parents">
                        <path d="M6.27765289,47.4235718 L1.80874874,47.4235718 C1.31622676,47.4214173 0.918106735,47.022596 0.918106735,46.5313716 L0.918106735,35.8406217 L6.27765289,35.8406217 L6.27765289,47.4235718 Z" id="Shape" fill="#FFC58B" fill-rule="nonzero"></path>
                        <path d="M24.8516584,26.3903431 L17.0006687,24.2615847 L9.8519915,24.2615847 L2.00492539,26.3981695 C0.844088536,26.7201478 0.0414433448,27.775237 0.043156119,28.9769411 L0.043156119,36.7367351 C0.043156119,37.2294836 0.443669497,37.6289353 0.9377244,37.6289353 L5.38308735,37.6289353 L5.38308735,47.4118324 L21.4695729,47.4118324 L21.4695729,35.6097453 L26.8251955,35.6097453 L26.8251955,28.9573753 C26.8201616,27.7567134 26.0129576,26.7067617 24.8516584,26.3903431 Z" id="Shape" fill="#FFFFFF" fill-rule="nonzero"></path>
                        <path d="M8.95742597,21.1310577 L8.95742597,24.2615847 C8.90918794,25.8847341 9.7498747,27.4056058 11.1517994,28.2313874 C12.5537241,29.057169 14.2950126,29.057169 15.6969373,28.2313874 C17.098862,27.4056058 17.9395488,25.8847341 17.8913107,24.2615847 L17.8913107,21.1310577 L8.95742597,21.1310577 Z" id="Shape" fill="#FFC58B" fill-rule="nonzero"></path>
                        <path d="M21.4656493,10.890321 L21.4656493,5.5410329 L5.37916382,5.5410329 L5.37916382,10.890321 C4.39322092,10.890321 3.59395628,11.6874723 3.59395628,12.6708083 C3.59395628,13.6541442 4.39322092,14.4512955 5.37916382,14.4512955 C5.37916382,18.8817103 8.98024627,22.4732711 13.4224066,22.4732711 C17.8645669,22.4732711 21.4656493,18.8817103 21.4656493,14.4512955 C22.4515922,14.4512955 23.2508569,13.6541442 23.2508569,12.6708083 C23.2508569,11.6874723 22.4515922,10.890321 21.4656493,10.890321 Z" id="Shape" fill="#FFC58B" fill-rule="nonzero"></path>
                        <path d="M19.4411063,10.0411656 C19.7271377,10.7221897 20.4688721,11.0929075 21.1870785,10.9138 C21.2856874,10.8980515 21.385402,10.8902001 21.485267,10.890321 C21.8001367,10.8916533 22.1089472,10.9767569 22.3798325,11.13685 L22.3798325,5.5410329 C22.3761796,4.25650682 21.6769162,3.07419486 20.5514661,2.44963743 C20.3457622,1.14551686 19.214944,0.187361887 17.8913107,0.195604482 L10.746557,0.195604482 C7.29250653,0.195604482 4.49244535,2.98831547 4.49244535,6.43323311 L4.49244535,11.1290237 C4.76179709,10.9682289 5.06918892,10.8817925 5.38308735,10.8785815 C5.49650752,10.878126 5.60964301,10.8899345 5.72051119,10.9138 C6.58428517,11.1105623 7.4498699,10.5925846 7.68227772,9.73985232 L7.68227772,9.73985232 L7.90199557,8.86330474 C8.00963386,8.48938039 8.34778868,8.2281221 8.73770811,8.21763354 C10.3973626,8.17458879 14.7877961,7.9554519 17.7618341,6.87542006 C18.0092938,6.78729012 18.2831443,6.81264091 18.5101135,6.94468951 C18.7370826,7.07673812 18.894005,7.30200707 18.9388941,7.56022285 L19.2763179,9.55984702 C19.3134296,9.72581525 19.3686898,9.88722074 19.4411063,10.0411656 Z" id="Shape" fill="#021529" fill-rule="nonzero"></path>
                        <path d="M16.0511737,16.1300407 C15.9966212,17.5375766 14.8366898,18.6505864 13.4243683,18.6505864 C12.0120469,18.6505864 10.8521155,17.5375766 10.797563,16.1300407 L16.0511737,16.1300407 Z" id="Shape" fill="#F49342" fill-rule="nonzero"></path>
                        <path d="M33.8638872,3.76052604 L33.8638872,3.76052604 C36.4687487,3.75534967 38.9687065,4.78375053 40.8124646,6.61896309 C42.6562226,8.45417565 43.6923428,10.9454635 43.6923375,13.5434427 L43.6923375,13.5434427 C43.731606,17.7161407 44.0290521,21.8824442 44.5829795,26.018593 C41.2540902,27.8403977 37.6228616,29.0480487 33.8638872,29.5834807 C30.103781,29.0475856 26.4713459,27.8399755 23.1408714,26.018593 C23.6972177,21.8826386 23.9959791,17.7162664 24.0354369,13.5434427 L24.0354369,13.5434427 C24.0354369,8.14049784 28.4270009,3.76052604 33.8442696,3.76052604 L33.8638872,3.76052604 Z" id="Shape" fill="#021529" fill-rule="nonzero"></path>
                        <path d="M38.7016035,30.1587151 C38.0304922,29.8725336 37.6016469,29.2077213 37.6187084,28.4799699 L37.6932555,25.2320481 L30.5485018,25.0676954 L30.4896488,28.3156173 C30.4683584,29.0473779 30.0020367,29.6923009 29.3125889,29.9434913 L23.1291008,32.2444287 C22.1038405,32.6283618 21.4146899,33.5943368 21.3870521,34.6862398 L21.3046579,38.2080828 C21.2972701,38.4464369 21.3854431,38.6778974 21.5496581,38.851226 C21.7138732,39.0245546 21.9405847,39.1254541 22.1796058,39.1315883 L21.9912762,47.1496507 C36.8117684,47.0218209 44.2220145,46.9579059 44.2220145,46.9579059 C44.2220145,46.9579059 45.2253652,47.2848116 45.2382096,46.7935533 L45.402998,39.667691 C45.8962535,39.6764523 45.7785802,39.2321348 45.7914277,38.7402724 L45.8738219,35.2184294 C45.9022742,34.1224784 45.7825336,33.1751263 44.7713091,32.7453131 L38.7016035,30.1587151 Z" id="Shape" fill="#FFC58B" fill-rule="nonzero"></path>
                        <path d="M33.8638872,26.9264468 L33.8638872,26.9264468 C31.7310475,26.9274841 29.6852071,26.0831847 28.1766936,24.5793937 C26.6681801,23.0756028 25.8206351,21.035584 25.8206351,18.9083835 L25.8206351,16.1691723 C25.8186495,15.7329328 26.1345639,15.3598128 26.5661158,15.2887115 C28.6181235,14.9678325 29.6107774,13.3908295 30.0266719,12.4634109 C30.092136,12.320944 30.2180596,12.215148 30.3699478,12.175004 C30.521836,12.1348601 30.6837656,12.1645767 30.8113785,12.2560134 C34.5975879,15.1047931 41.8757417,12.9721215 41.8757417,18.9083835 L41.8757417,18.9083835 C41.8757417,23.3259618 38.2931512,26.9113541 33.8638872,26.9264468 L33.8638872,26.9264468 Z" id="Shape" fill="#FFC58B" fill-rule="nonzero"></path>
                        <path d="M44.5084324,32.3657367 L40.6908348,30.847431 C40.0295503,34.1882387 37.0918348,36.5963118 33.6775194,36.5963118 C30.2632041,36.5963118 27.3254886,34.1882387 26.6642041,30.847431 L22.8544535,32.3657367 C21.8371622,32.7733741 21.1707605,33.7571648 21.1712575,34.8505925 L21.1712575,47.2983507 L46.1837816,47.2983507 L46.1837816,34.8505925 C46.1844905,33.7594178 45.5219317,32.7767191 44.5084324,32.3657367 L44.5084324,32.3657367 Z" id="Shape" fill="#196FBB" fill-rule="nonzero"></path>
                        <path d="M36.4887309,20.5988681 C36.4341783,22.006404 35.2742469,23.1194138 33.8619255,23.1194138 C32.449604,23.1194138 31.2896726,22.006404 31.2351201,20.5988681" id="Shape" stroke="#F49342" stroke-width="1.55675666"></path>
                    </g>
                </g>
            </g>
        </g>
    </g>
</svg>