<?xml version="1.0" encoding="UTF-8"?>
<svg width="48px" height="48px" viewBox="0 0 48 48" version="1.1" xmlns="http://www.w3.org/2000/svg" xmlns:xlink="http://www.w3.org/1999/xlink">
    <!-- Generator: Sketch 64 (93537) - https://sketch.com -->
    <title>iconfinder_hospital-building-nursing-healthcare-medical_5728195</title>
    <desc>Created with Sketch.</desc>
    <g id="🖥-Website" stroke="none" stroke-width="1" fill="none" fill-rule="evenodd">
        <g id="New-Frontpage" transform="translate(-912.000000, -672.000000)" fill-rule="nonzero">
            <g id="Rectangle" transform="translate(892.000000, 656.000000)">
                <g id="Group-12">
                    <g id="iconfinder_hospital-building-nursing-healthcare-medical_5728195" transform="translate(20.000000, 16.000000)">
                        <path d="M14.4,0 L33.6,0 C34.9254834,-2.59801885e-15 36,1.0745166 36,2.4 L36,48 L36,48 L12,48 L12,2.4 C12,1.0745166 13.0745166,6.01664708e-15 14.4,0 Z" id="Rectangle" fill="#47C1BF"></path>
                        <path d="M36,9 L45.6,9 C46.9254834,9 48,10.0745166 48,11.4 L48,48 L48,48 L36,48 L36,9 Z" id="Rectangle" fill="#17848E"></path>
                        <rect id="Rectangle" fill="#E0F5F5" x="39.2" y="13.4" width="4.8" height="4.8" rx="0.6"></rect>
                        <rect id="Rectangle" fill="#E0F5F5" x="39.2" y="21.4" width="4.8" height="4.8" rx="0.6"></rect>
                        <rect id="Rectangle" fill="#E0F5F5" x="39.2" y="29.4" width="4.8" height="4.8" rx="0.6"></rect>
                        <path d="M2.4,8.5 L12,8.5 L12,8.5 L12,48 L0,48 L0,10.9 C-1.623249e-16,9.5745166 1.0745166,8.5 2.4,8.5 Z" id="Rectangle" fill="#17848E"></path>
                        <rect id="Rectangle" fill="#E0F5F5" x="4" y="13.4" width="4.8" height="4.8" rx="0.6"></rect>
                        <rect id="Rectangle" fill="#E0F5F5" x="15.2" y="16.8" width="3.2" height="3.2" rx="0.6"></rect>
                        <rect id="Rectangle" fill="#E0F5F5" x="22.4" y="16.8" width="3.2" height="3.2" rx="0.6"></rect>
                        <rect id="Rectangle" fill="#E0F5F5" x="29.6" y="16.8" width="3.2" height="3.2" rx="0.6"></rect>
                        <rect id="Rectangle" fill="#E0F5F5" x="15.2" y="23.2" width="3.2" height="3.2" rx="0.6"></rect>
                        <rect id="Rectangle" fill="#E0F5F5" x="22.4" y="23.2" width="3.2" height="3.2" rx="0.6"></rect>
                        <rect id="Rectangle" fill="#E0F5F5" x="29.6" y="23.2" width="3.2" height="3.2" rx="0.6"></rect>
                        <rect id="Rectangle" fill="#E0F5F5" x="15.2" y="29.6" width="3.2" height="3.2" rx="0.6"></rect>
                        <rect id="Rectangle" fill="#E0F5F5" x="22.4" y="29.6" width="3.2" height="3.2" rx="0.6"></rect>
                        <rect id="Rectangle" fill="#E0F5F5" x="29.6" y="29.6" width="3.2" height="3.2" rx="0.6"></rect>
                        <rect id="Rectangle" fill="#E0F5F5" x="4" y="21.4" width="4.8" height="4.8" rx="0.6"></rect>
                        <rect id="Rectangle" fill="#E0F5F5" x="4" y="29.4" width="4.8" height="4.8" rx="0.6"></rect>
                        <rect id="Rectangle" fill="#E0F5F5" x="39.2" y="37.4" width="4.8" height="4.8" rx="0.6"></rect>
                        <rect id="Rectangle" fill="#E0F5F5" x="4" y="37.4" width="4.8" height="4.8" rx="0.6"></rect>
                        <path d="M28.2,7.2 L26.2,7.2 C25.8686292,7.2 25.6,6.93137085 25.6,6.6 L25.6,4.6 C25.6,4.26862915 25.3313708,4 25,4 L23,4 C22.6686292,4 22.4,4.26862915 22.4,4.6 L22.4,6.6 C22.4,6.93137085 22.1313708,7.2 21.8,7.2 L19.8,7.2 C19.4686292,7.2 19.2,7.46862915 19.2,7.8 L19.2,9.8 C19.2,10.1313708 19.4686292,10.4 19.8,10.4 L21.8,10.4 C22.1313708,10.4 22.4,10.6686292 22.4,11 L22.4,13 C22.4,13.3313708 22.6686292,13.6 23,13.6 L25,13.6 C25.3313708,13.6 25.6,13.3313708 25.6,13 L25.6,11 C25.6,10.6686292 25.8686292,10.4 26.2,10.4 L28.2,10.4 C28.5313708,10.4 28.8,10.1313708 28.8,9.8 L28.8,7.8 C28.8,7.46862915 28.5313708,7.2 28.2,7.2 Z" id="Path" fill="#FFFFFF"></path>
                        <rect id="Rectangle" fill="#003135" x="20.8" y="37.6" width="6.4" height="10.4"></rect>
                        <rect id="Rectangle" fill="#003135" x="18.4" y="36.8" width="11.2" height="1.6"></rect>
                    </g>
                </g>
            </g>
        </g>
    </g>
</svg>