<?xml version="1.0" encoding="UTF-8"?>
<svg width="1875px" height="650px" viewBox="0 0 1875 650" version="1.1" xmlns="http://www.w3.org/2000/svg" xmlns:xlink="http://www.w3.org/1999/xlink">
    <!-- Generator: Sketch 63.1 (92452) - https://sketch.com -->
    <title>Logo ON LIGHT</title>
    <desc>Created with Sketch.</desc>
    <g id="Logo" stroke="none" stroke-width="1" fill="none" fill-rule="evenodd">
        <g id="Artboard" transform="translate(-320.000000, -2100.000000)">
            <g id="Logo-ON-LIGHT" transform="translate(320.000000, 2100.000000)">
                <g id="Group-5">
                    <rect id="Rectangle" fill="#F44336" x="0" y="0" width="639" height="650" rx="20"></rect>
                    <g id="Group-3-Copy-6" transform="translate(80.000000, 80.000000)" fill="#FFFFFF">
                        <g id="Group" transform="translate(74.500000, 245.000000) rotate(270.000000) translate(-74.500000, -245.000000) translate(-30.500000, 170.500000)">
                            <circle id="Oval" cx="50" cy="98" r="50"></circle>
                            <path d="M184.5,0 L210,0 L210,0 L210,129 C210,140.045695 201.045695,149 190,149 L130,149 C118.954305,149 110,140.045695 110,129 L110,74.5 C110,33.3547861 143.354786,7.55825317e-15 184.5,0 Z" id="Rectangle"></path>
                        </g>
                        <g id="Group-4" transform="translate(134.000000, 0.000000)">
                            <circle id="Oval" transform="translate(50.000000, 100.000000) rotate(360.000000) translate(-50.000000, -100.000000) " cx="50" cy="100" r="50"></circle>
                            <path d="M185,0 L210,0 L210,0 L210,130 C210,141.045695 201.045695,150 190,150 L130,150 C118.954305,150 110,141.045695 110,130 L110,75 C110,33.5786438 143.578644,7.6089797e-15 185,0 Z" id="Rectangle" transform="translate(160.000000, 75.000000) rotate(360.000000) translate(-160.000000, -75.000000) "></path>
                        </g>
                        <g id="Group-2" transform="translate(329.000000, 140.000000)">
                            <circle id="Oval" transform="translate(50.000000, 50.000000) rotate(450.000000) translate(-50.000000, -50.000000) " cx="50" cy="50" r="50"></circle>
                            <path d="M100,85 L125,85 L125,85 L125,215 C125,226.045695 116.045695,235 105,235 L50,235 C36.1928813,235 25,223.807119 25,210 L25,160 C25,118.578644 58.5786438,85 100,85 Z" id="Rectangle" transform="translate(75.000000, 160.000000) rotate(450.000000) translate(-75.000000, -160.000000) "></path>
                        </g>
                        <g id="Group-Copy-4" transform="translate(239.000000, 415.000000) rotate(540.000000) translate(-239.000000, -415.000000) translate(134.000000, 340.000000)">
                            <circle id="Oval" cx="50" cy="100" r="50"></circle>
                            <path d="M185,4.54747351e-12 L210,4.54747351e-12 L210,4.54747351e-12 L210,130 C210,141.045695 201.045695,150 190,150 L130,150 C118.954305,150 110,141.045695 110,130 L110,75 C110,33.5786438 143.578644,4.55508249e-12 185,4.54747351e-12 Z" id="Rectangle"></path>
                        </g>
                    </g>
                </g>
                <path d="M762.473457,302.409686 L762.473457,207.091249 L847.246699,207.091249 L847.246699,302.409686 L890.720156,302.409686 L890.720156,80 L847.246699,80 L847.246699,170.124804 L762.473457,170.124804 L762.473457,80 L719,80 L719,302.409686 L762.473457,302.409686 Z M1058.48826,302.409686 L1058.48826,265.595995 L960.528067,265.595995 L960.528067,206.021972 L1043.99711,206.021972 L1043.99711,170.124804 L960.528067,170.124804 L960.528067,117.119199 L1058.19843,117.119199 L1058.19843,80 L917.05461,80 L917.05461,302.409686 L1058.48826,302.409686 Z M1214.078,302.409686 L1214.078,265.595995 L1121.76935,265.595995 L1121.76935,80 L1078.2959,80 L1078.2959,302.409686 L1214.078,302.409686 Z M1299.65035,302.409686 C1318.10242,302.30785 1334.67063,297.827069 1349.355,288.967343 C1364.03937,280.107616 1375.41492,267.632714 1383.48166,251.542636 C1391.54841,235.452558 1395.58178,217.071171 1395.58178,196.398476 L1395.58178,196.398476 L1395.58178,186.163964 C1395.58178,165.491269 1391.47595,147.033506 1383.2643,130.790674 C1375.05264,114.547842 1363.62879,102.022021 1348.99272,93.2132128 C1334.35666,84.4044043 1317.76429,80 1299.21561,80 L1299.21561,80 L1234.29525,80 L1234.29525,302.409686 L1299.65035,302.409686 Z M1295.81309,264.847162 L1274.80092,264.847162 L1274.80092,115.58555 L1296.24783,115.58555 C1313.34739,115.58555 1326.34112,121.446474 1335.22903,133.168322 C1344.11693,144.89017 1348.56089,162.114632 1348.56089,184.841709 L1348.56089,184.841709 L1348.56089,196.665932 C1348.36767,218.574014 1343.77881,235.414574 1334.79429,247.187609 C1325.80978,258.960644 1312.81604,264.847162 1295.81309,264.847162 L1295.81309,264.847162 Z M1556.97377,302.409686 L1556.97377,265.595995 L1459.01358,265.595995 L1459.01358,206.021972 L1542.48262,206.021972 L1542.48262,170.124804 L1459.01358,170.124804 L1459.01358,117.119199 L1556.68395,117.119199 L1556.68395,80 L1415.54012,80 L1415.54012,302.409686 L1556.97377,302.409686 Z M1622.23339,302.409686 L1622.23339,156.071445 L1706.86172,302.409686 L1750.33518,302.409686 L1750.33518,80 L1707.00664,80 L1707.00664,226.643749 L1622.23339,80 L1578.75994,80 L1578.75994,302.409686 L1622.23339,302.409686 Z M762.473457,583.034538 L762.473457,360.624851 L719,360.624851 L719,583.034538 L762.473457,583.034538 Z M837.567741,583.034538 L837.567741,436.696296 L922.196071,583.034538 L965.669528,583.034538 L965.669528,360.624851 L922.340983,360.624851 L922.340983,507.2686 L837.567741,360.624851 L794.094284,360.624851 L794.094284,583.034538 L837.567741,583.034538 Z M1139.98297,583.034538 L1174.327,434.252234 L1208.67103,583.034538 L1252.43431,583.034538 L1299.24073,360.624851 L1255.91219,360.624851 L1227.50953,518.877897 L1192.87567,360.624851 L1156.06815,360.624851 L1121.28938,518.572389 L1092.74181,360.624851 L1049.41326,360.624851 L1096.21969,583.034538 L1139.98297,583.034538 Z M1455.48547,583.034538 L1455.48547,546.220846 L1357.52528,546.220846 L1357.52528,486.646823 L1440.99432,486.646823 L1440.99432,450.749655 L1357.52528,450.749655 L1357.52528,397.74405 L1455.19565,397.74405 L1455.19565,360.624851 L1314.05182,360.624851 L1314.05182,583.034538 L1455.48547,583.034538 Z M1519.54136,583.034538 L1519.54136,360.624851 L1476.0679,360.624851 L1476.0679,583.034538 L1519.54136,583.034538 Z M1623.71842,586 C1647.09748,586 1665.69446,580.530611 1679.50936,569.591834 C1693.32426,558.653057 1700.23171,543.567721 1700.23171,524.335824 C1700.23171,507.037293 1694.58016,492.587932 1683.27706,480.98774 C1671.97396,469.387549 1653.95663,459.669844 1629.22506,451.834627 C1615.79659,447.560873 1605.62863,442.98185 1598.72118,438.097559 C1591.81373,433.213267 1588.36001,427.158781 1588.36001,419.934101 C1588.36001,412.20064 1591.30654,405.968081 1597.19961,401.236424 C1603.09268,396.504767 1611.35264,394.138938 1621.97948,394.138938 C1632.99276,394.138938 1641.54254,396.962669 1647.62882,402.610131 C1653.71511,408.257592 1656.75825,416.169126 1656.75825,426.344733 L1656.75825,426.344733 L1700.23171,426.344733 C1700.23171,413.014688 1696.9712,401.109229 1690.45018,390.628354 C1683.92916,380.147479 1674.77558,372.032433 1662.98944,366.283215 C1651.20331,360.533998 1637.77484,357.659389 1622.70404,357.659389 C1607.72985,357.659389 1594.22893,360.305046 1582.20127,365.596362 C1570.17361,370.887677 1560.94758,378.239553 1554.52317,387.651989 C1548.09876,397.064425 1544.88655,407.774251 1544.88655,419.781467 C1544.88655,442.880094 1556.8659,461.247063 1580.82461,474.882376 C1589.61591,479.868424 1601.54696,484.930788 1616.61776,490.069469 C1631.68855,495.20815 1642.12218,500.092442 1647.91865,504.722343 C1653.71511,509.352244 1656.61334,515.991827 1656.61334,524.641092 C1656.61334,532.578066 1653.71511,538.759747 1647.91865,543.186135 C1642.12218,547.612524 1634.05544,549.825719 1623.71842,549.825719 C1595.89541,549.825719 1581.9839,537.564113 1581.9839,513.040901 L1581.9839,513.040901 L1538.36553,513.040901 C1538.36553,527.388506 1541.86756,540.006258 1548.87162,550.894157 C1555.87568,561.782056 1566.04363,570.355005 1579.37549,576.613003 C1592.70735,582.871001 1607.48833,586 1623.71842,586 Z M1798.48672,586 C1821.86577,586 1840.46275,580.530611 1854.27765,569.591834 C1868.09255,558.653057 1875,543.567721 1875,524.335824 C1875,507.037293 1869.34845,492.587932 1858.04535,480.98774 C1846.74225,469.387549 1828.72492,459.669844 1803.99335,451.834627 C1790.56489,447.560873 1780.39693,442.98185 1773.48948,438.097559 C1766.58203,433.213267 1763.1283,427.158781 1763.1283,419.934101 C1763.1283,412.20064 1766.07484,405.968081 1771.96791,401.236424 C1777.86098,396.504767 1786.12093,394.138938 1796.74778,394.138938 C1807.76105,394.138938 1816.31083,396.962669 1822.39712,402.610131 C1828.4834,408.257592 1831.52654,416.169126 1831.52654,426.344733 L1831.52654,426.344733 L1875,426.344733 C1875,413.014688 1871.73949,401.109229 1865.21847,390.628354 C1858.69745,380.147479 1849.54388,372.032433 1837.75774,366.283215 C1825.9716,360.533998 1812.54313,357.659389 1797.47233,357.659389 C1782.49814,357.659389 1768.99722,360.305046 1756.96956,365.596362 C1744.94191,370.887677 1735.71587,378.239553 1729.29146,387.651989 C1722.86705,397.064425 1719.65485,407.774251 1719.65485,419.781467 C1719.65485,442.880094 1731.6342,461.247063 1755.5929,474.882376 C1764.3842,479.868424 1776.31525,484.930788 1791.38605,490.069469 C1806.45685,495.20815 1816.89048,500.092442 1822.68694,504.722343 C1828.4834,509.352244 1831.38163,515.991827 1831.38163,524.641092 C1831.38163,532.578066 1828.4834,538.759747 1822.68694,543.186135 C1816.89048,547.612524 1808.82374,549.825719 1798.48672,549.825719 C1770.6637,549.825719 1756.7522,537.564113 1756.7522,513.040901 L1756.7522,513.040901 L1713.13383,513.040901 C1713.13383,527.388506 1716.63586,540.006258 1723.63991,550.894157 C1730.64397,561.782056 1740.81193,570.355005 1754.14379,576.613003 C1767.47565,582.871001 1782.25662,586 1798.48672,586 Z" id="HELDENINWEISS-Copy-4" fill="#000000" fill-rule="nonzero"></path>
            </g>
        </g>
    </g>
</svg>